<?xml version="1.0" encoding="utf-8"?>
<!-- Generator: Adobe Illustrator 26.0.1, SVG Export Plug-In . SVG Version: 6.00 Build 0)  -->
<svg version="1.1" id="Layer_1" xmlns="http://www.w3.org/2000/svg" xmlns:xlink="http://www.w3.org/1999/xlink" x="0px" y="0px"
	 viewBox="0 0 2834.65 2692.91" style="enable-background:new 0 0 2834.65 2692.91;" xml:space="preserve">
<style type="text/css">
	.st0{fill:#D6B786;}
</style>
<g>
	<path class="st0" d="M654.12,2561.01h0.64c4.31-15.62,19.01-64.85,24.6-86.58c1.6-6.28,1.76-8.66,1.76-10.87
		c0-3.06-1.76-5.09-9.1-5.09c-0.8,0-1.44-0.51-1.44-1.19c0-0.85,0.8-1.19,2.72-1.19c8.15,0,14.85,0.51,16.29,0.51
		c1.12,0,7.99-0.51,12.94-0.51c1.44,0,2.24,0.34,2.24,1.02c0,0.85-0.48,1.36-1.44,1.36c-0.64,0-3.67,0.17-5.43,0.85
		c-4.79,1.87-7.35,9-10.38,18.33c-7.03,21.56-23.16,75.55-29.39,94.56c-4.15,12.56-4.95,14.6-6.71,14.6c-1.6,0-2.56-2.21-4.79-8.83
		l-31.3-94.56h-0.32c-5.75,16.3-27.63,78.6-33.38,94.39c-2.56,7.13-3.35,9-5.27,9c-1.6,0-2.4-1.87-5.59-13.41l-28.43-100.67
		c-2.56-9-4.63-11.54-8.78-13.24c-2.08-0.85-6.07-1.02-7.19-1.02c-0.8,0-1.44-0.17-1.44-1.19c0-0.85,0.96-1.19,2.56-1.19
		c8.31,0,17.09,0.51,18.85,0.51c1.44,0,8.46-0.51,16.45-0.51c2.24,0,2.88,0.51,2.88,1.19c0,1.02-0.8,1.19-1.6,1.19
		c-1.28,0-4.31,0-6.23,1.02c-0.96,0.51-2.08,1.87-2.08,4.07s1.44,8.15,3.03,15.62c2.4,10.87,19.01,73.17,21.4,82.17h0.32
		l33.86-96.94c2.4-6.96,3.03-7.81,3.99-7.81c1.12,0,2.08,2.21,3.99,7.98L654.12,2561.01z"/>
	<path class="st0" d="M727.1,2517.04c0-22.41,0-26.48-0.32-31.07c-0.32-4.92-1.12-7.3-5.75-7.98c-1.12-0.17-3.51-0.34-4.79-0.34
		c-0.48,0-1.12-0.68-1.12-1.19c0-0.85,0.64-1.19,2.24-1.19c6.39,0,15.49,0.34,16.29,0.34c0.96,0,30.35,0.17,33.54,0
		c2.72-0.17,5.27-0.68,6.39-0.85c0.64-0.17,1.28-0.68,1.92-0.68c0.48,0,0.64,0.68,0.64,1.36c0,1.02-0.8,2.72-1.12,6.79
		c-0.16,1.36-0.48,7.81-0.8,9.51c-0.16,0.68-0.64,1.53-1.28,1.53c-0.8,0-1.12-0.68-1.12-1.87c0-1.02-0.16-3.4-0.8-5.09
		c-0.96-2.38-2.4-3.4-10.06-4.41c-2.4-0.34-18.69-0.51-20.28-0.51c-0.64,0-0.8,0.51-0.8,1.53v39.22c0,1.02,0,1.53,0.8,1.53
		c1.76,0,20.28,0,23.48-0.34c3.35-0.34,5.43-0.51,6.87-2.04c0.96-1.02,1.6-1.87,2.08-1.87c0.48,0,0.8,0.34,0.8,1.19
		c0,0.85-0.8,3.23-1.12,7.98c-0.32,2.89-0.64,8.32-0.64,9.34c0,1.19-0.32,2.72-1.28,2.72c-0.64,0-0.96-0.51-0.96-1.36
		c0-1.36,0-2.89-0.64-4.75c-0.48-2.04-1.76-3.73-7.19-4.41c-3.83-0.51-18.85-0.68-21.24-0.68c-0.8,0-0.96,0.51-0.96,1.02v12.05
		c0,4.92-0.16,21.73,0,24.62c0.32,9.68,2.88,11.54,16.77,11.54c3.67,0,10.38,0,14.05-1.53c3.67-1.7,5.59-4.24,6.39-10.02
		c0.32-1.7,0.64-2.21,1.44-2.21c0.8,0,0.96,1.19,0.96,2.21c0,1.02-1.12,10.87-1.92,13.92c-0.96,3.73-2.4,3.73-7.83,3.73
		c-10.54,0-18.69-0.34-24.44-0.51c-5.91-0.34-9.58-0.34-11.66-0.34c-0.32,0-3.03,0-6.07,0.17c-2.72,0.17-5.91,0.34-8.15,0.34
		c-1.44,0-2.24-0.34-2.24-1.19c0-0.51,0.32-1.19,1.12-1.19c1.28,0,3.03-0.51,4.31-0.68c2.71-0.51,3.03-3.4,3.67-7.64
		c0.8-5.94,0.8-17.32,0.8-31.24V2517.04z"/>
	<path class="st0" d="M967.14,2535.2c0,16.3,0,29.71,0.8,36.84c0.48,4.92,1.44,8.66,6.23,9.34c2.24,0.34,5.75,0.68,7.19,0.68
		c0.96,0,1.28,0.51,1.28,1.02c0,0.85-0.8,1.36-2.56,1.36c-8.78,0-18.85-0.51-19.65-0.51c-0.8,0-10.86,0.51-15.65,0.51
		c-1.76,0-2.56-0.34-2.56-1.36c0-0.51,0.32-1.02,1.28-1.02c1.44,0,3.35-0.34,4.79-0.68c3.19-0.68,3.99-4.41,4.63-9.34
		c0.8-7.13,0.8-20.54,0.8-36.84v-17.83c0-0.68-0.48-1.02-0.96-1.02h-67.72c-0.48,0-0.96,0.17-0.96,1.02v17.83
		c0,16.3,0,29.71,0.8,36.84c0.48,4.92,1.44,8.66,6.23,9.34c2.24,0.34,5.75,0.68,7.19,0.68c0.96,0,1.28,0.51,1.28,1.02
		c0,0.85-0.8,1.36-2.56,1.36c-8.78,0-18.85-0.51-19.64-0.51c-0.8,0-10.86,0.51-15.65,0.51c-1.76,0-2.56-0.34-2.56-1.36
		c0-0.51,0.32-1.02,1.28-1.02c1.44,0,3.35-0.34,4.79-0.68c3.19-0.68,3.99-4.41,4.63-9.34c0.8-7.13,0.8-20.54,0.8-36.84v-29.88
		c0-26.48,0-31.24-0.32-36.67c-0.32-5.77-1.6-8.49-6.87-9.68c-1.28-0.34-3.99-0.51-5.43-0.51c-0.64,0-1.28-0.34-1.28-1.02
		c0-1.02,0.8-1.36,2.56-1.36c7.19,0,17.25,0.51,18.05,0.51c0.8,0,10.86-0.51,15.65-0.51c1.76,0,2.56,0.34,2.56,1.36
		c0,0.68-0.64,1.02-1.28,1.02c-1.12,0-2.08,0.17-3.99,0.51c-4.31,0.85-5.59,3.74-5.91,9.68c-0.32,5.43-0.32,10.19-0.32,36.67v3.57
		c0,0.85,0.48,1.02,0.96,1.02h67.72c0.48,0,0.96-0.17,0.96-1.02v-3.57c0-26.48,0-31.24-0.32-36.67c-0.32-5.77-1.6-8.49-6.87-9.68
		c-1.28-0.34-3.99-0.51-5.43-0.51c-0.64,0-1.28-0.34-1.28-1.02c0-1.02,0.8-1.36,2.56-1.36c7.19,0,17.25,0.51,18.05,0.51
		c0.8,0,10.86-0.51,15.65-0.51c1.76,0,2.56,0.34,2.56,1.36c0,0.68-0.64,1.02-1.28,1.02c-1.12,0-2.08,0.17-3.99,0.51
		c-4.31,0.85-5.59,3.74-5.91,9.68c-0.32,5.43-0.32,10.19-0.32,36.67V2535.2z"/>
	<path class="st0" d="M1041.72,2478.16c1.76-4.75,2.4-5.6,3.35-5.6c1.44,0,1.92,2.04,3.35,5.26c2.56,6.11,25.08,65.7,33.7,87.6
		c5.11,12.9,8.94,14.77,11.98,15.79c2.08,0.68,4.15,0.85,5.59,0.85c0.8,0,1.76,0.34,1.76,1.19c0,0.85-1.6,1.19-3.19,1.19
		c-2.08,0-12.46,0-22.2-0.34c-2.71-0.17-4.95-0.17-4.95-1.02c0-0.68,0.32-0.68,0.96-1.02c0.8-0.34,2.24-1.53,1.28-3.91l-12.62-33.1
		c-0.32-0.68-0.48-0.85-1.28-0.85h-32.42c-0.64,0-1.12,0.34-1.44,1.19l-7.99,23.09c-1.28,3.57-2.08,7.13-2.08,9.68
		c0,2.89,2.4,3.91,4.79,3.91h1.28c1.12,0,1.44,0.51,1.44,1.19c0,0.85-0.8,1.19-2.08,1.19c-3.35,0-11.02-0.51-12.62-0.51
		c-1.44,0-8.46,0.51-14.21,0.51c-1.76,0-2.71-0.34-2.71-1.19c0-0.68,0.64-1.19,1.28-1.19c0.96,0,3.03-0.17,4.15-0.34
		c6.39-0.85,9.1-5.94,11.82-13.24L1041.72,2478.16z M1057.37,2538.26c0.64,0,0.64-0.34,0.48-1.02l-13.9-39.56
		c-0.8-2.21-1.6-2.21-2.4,0l-13.1,39.56c-0.16,0.68,0,1.02,0.48,1.02H1057.37z"/>
	<path class="st0" d="M1139.14,2565.59c8.15-19.35,26.51-68.59,29.55-78.94c0.64-2.21,1.28-4.25,1.28-5.43
		c0-1.19-0.48-2.55-1.92-3.06c-1.6-0.51-3.19-0.51-4.79-0.51c-0.8,0-1.6-0.51-1.6-1.19c0-0.85,0.96-1.19,3.19-1.19
		c5.59,0,11.98,0.34,13.74,0.34c0.8,0,6.87-0.34,11.02-0.34c1.44,0,2.24,0.34,2.24,1.02s-0.48,1.36-1.6,1.36
		c-0.96,0-4.15,0-6.71,1.7c-1.92,1.36-4.15,3.4-7.83,13.24c-1.6,4.07-8.46,21.39-15.65,39.05c-8.62,21.05-14.85,36.67-18.05,43.8
		c-3.83,8.66-4.63,10.87-6.07,10.87c-1.6,0-2.56-1.87-5.27-8.83l-34.5-88.45c-3.19-8.15-5.11-9.68-9.74-10.87
		c-2.24-0.51-4.63-0.51-5.43-0.51c-0.8,0-1.12-0.85-1.12-1.36c0-0.85,1.44-1.02,3.67-1.02c6.71,0,14.69,0.34,16.45,0.34
		c1.44,0,7.67-0.34,13.1-0.34c2.56,0,3.83,0.34,3.83,1.02s-0.48,1.36-1.44,1.36c-1.6,0-3.83,0.17-5.11,0.68
		c-1.44,0.68-1.6,1.53-1.6,2.55c0,1.87,1.76,6.28,3.83,12.05L1139.14,2565.59z"/>
	<path class="st0" d="M1212.6,2517.04c0-22.41,0-26.48-0.32-31.07c-0.32-4.92-1.12-7.3-5.75-7.98c-1.12-0.17-3.51-0.34-4.79-0.34
		c-0.48,0-1.12-0.68-1.12-1.19c0-0.85,0.64-1.19,2.24-1.19c6.39,0,15.49,0.34,16.29,0.34c0.96,0,30.35,0.17,33.54,0
		c2.72-0.17,5.27-0.68,6.39-0.85c0.64-0.17,1.28-0.68,1.92-0.68c0.48,0,0.64,0.68,0.64,1.36c0,1.02-0.8,2.72-1.12,6.79
		c-0.16,1.36-0.48,7.81-0.8,9.51c-0.16,0.68-0.64,1.53-1.28,1.53c-0.8,0-1.12-0.68-1.12-1.87c0-1.02-0.16-3.4-0.8-5.09
		c-0.96-2.38-2.4-3.4-10.06-4.41c-2.4-0.34-18.69-0.51-20.28-0.51c-0.64,0-0.8,0.51-0.8,1.53v39.22c0,1.02,0,1.53,0.8,1.53
		c1.76,0,20.28,0,23.48-0.34c3.35-0.34,5.43-0.51,6.87-2.04c0.96-1.02,1.6-1.87,2.08-1.87c0.48,0,0.8,0.34,0.8,1.19
		c0,0.85-0.8,3.23-1.12,7.98c-0.32,2.89-0.64,8.32-0.64,9.34c0,1.19-0.32,2.72-1.28,2.72c-0.64,0-0.96-0.51-0.96-1.36
		c0-1.36,0-2.89-0.64-4.75c-0.48-2.04-1.76-3.73-7.19-4.41c-3.83-0.51-18.85-0.68-21.24-0.68c-0.8,0-0.96,0.51-0.96,1.02v12.05
		c0,4.92-0.16,21.73,0,24.62c0.32,9.68,2.88,11.54,16.77,11.54c3.67,0,10.38,0,14.05-1.53c3.67-1.7,5.59-4.24,6.39-10.02
		c0.32-1.7,0.64-2.21,1.44-2.21c0.8,0,0.96,1.19,0.96,2.21c0,1.02-1.12,10.87-1.92,13.92c-0.96,3.73-2.4,3.73-7.83,3.73
		c-10.54,0-18.69-0.34-24.44-0.51c-5.91-0.34-9.58-0.34-11.66-0.34c-0.32,0-3.03,0-6.07,0.17c-2.72,0.17-5.91,0.34-8.15,0.34
		c-1.44,0-2.24-0.34-2.24-1.19c0-0.51,0.32-1.19,1.12-1.19c1.28,0,3.03-0.51,4.31-0.68c2.72-0.51,3.03-3.4,3.67-7.64
		c0.8-5.94,0.8-17.32,0.8-31.24V2517.04z"/>
	<path class="st0" d="M1345.95,2582.23c-2.24-1.19-2.4-1.87-2.4-6.45c0-8.49,0.64-15.28,0.8-18c0.16-1.87,0.48-2.72,1.28-2.72
		c0.96,0,1.12,0.51,1.12,1.87c0,1.53,0,3.9,0.48,6.28c2.4,12.56,12.94,17.32,23.64,17.32c15.33,0,22.84-11.71,22.84-22.58
		c0-11.71-4.63-18.5-18.37-30.56l-7.19-6.28c-16.93-14.77-20.76-25.3-20.76-36.84c0-18.17,12.78-30.56,33.06-30.56
		c6.23,0,10.86,0.68,14.85,1.7c3.04,0.68,4.31,0.85,5.59,0.85c1.28,0,1.6,0.34,1.6,1.19c0,0.85-0.64,6.45-0.64,18
		c0,2.72-0.32,3.9-1.12,3.9c-0.96,0-1.12-0.85-1.28-2.21c-0.16-2.04-1.12-6.62-2.08-8.49c-0.96-1.87-5.27-9-19.96-9
		c-11.02,0-19.64,7.3-19.64,19.69c0,9.68,4.15,15.79,19.48,28.52l4.47,3.74c18.85,15.79,23.32,26.31,23.32,39.9
		c0,6.96-2.56,19.86-13.58,28.18c-6.87,5.09-15.49,7.13-24.12,7.13C1359.85,2586.81,1352.5,2585.62,1345.95,2582.23z"/>
	<path class="st0" d="M1483.3,2473.24c31.62,0,55.58,20.54,55.58,54.16c0,32.26-22.52,58.91-56.38,58.91
		c-38.49,0-54.94-30.73-54.94-56.7C1427.56,2506.34,1444.49,2473.24,1483.3,2473.24z M1486.5,2580.36
		c12.62,0,38.01-7.13,38.01-48.89c0-34.63-19.8-52.8-42-52.8c-23.48,0-40.41,15.62-40.41,47.03
		C1442.1,2559.31,1461.1,2580.36,1486.5,2580.36z"/>
	<path class="st0" d="M1581.04,2542.84c0,21.22,0.32,29.88,2.87,32.43c2.24,2.38,7.67,3.4,18.69,3.4c7.35,0,13.58-0.17,16.93-4.41
		c1.76-2.21,2.88-5.26,3.35-8.15c0.16-1.02,0.64-1.87,1.44-1.87c0.64,0,0.96,0.68,0.96,2.21c0,1.53-0.96,10.19-2.08,14.43
		c-0.96,3.4-1.44,3.9-8.94,3.9c-10.06,0-17.89-0.17-24.44-0.51c-6.39-0.17-11.18-0.34-15.33-0.34c-0.64,0-3.03,0-5.75,0.17
		c-2.87,0.17-5.91,0.34-8.14,0.34c-1.44,0-2.24-0.34-2.24-1.19c0-0.51,0.32-1.19,1.12-1.19c1.28,0,3.03-0.34,4.31-0.68
		c2.72-0.68,3.04-3.4,3.67-7.64c0.8-5.94,0.8-17.32,0.8-31.24v-25.46c0-22.41,0-26.48-0.32-31.07c-0.32-4.92-1.12-7.3-5.75-7.98
		c-1.12-0.17-3.51-0.34-4.79-0.34c-0.48,0-1.12-0.68-1.12-1.19c0-0.85,0.64-1.19,2.24-1.19c6.39,0,15.17,0.34,15.97,0.34
		c0.64,0,11.18-0.34,15.49-0.34c1.44,0,2.24,0.34,2.24,1.19c0,0.51-0.64,1.02-1.12,1.02c-0.96,0-3.03,0.17-4.63,0.34
		c-4.15,0.85-4.95,3.06-5.27,8.15c-0.16,4.58-0.16,8.66-0.16,31.07V2542.84z"/>
	<path class="st0" d="M1645.72,2517.04c0-22.41,0-26.48-0.32-31.07s-1.12-7.3-5.75-7.98c-1.12-0.17-3.51-0.34-4.79-0.34
		c-0.48,0-1.12-0.68-1.12-1.19c0-0.85,0.64-1.19,2.24-1.19c6.39,0,14.85,0.34,16.13,0.34s10.06-0.34,14.21-0.34
		c1.6,0,2.4,0.34,2.4,1.19c0,0.51-0.64,1.19-1.28,1.19c-0.96,0-1.76,0-3.51,0.34c-3.67,0.68-4.47,3.23-4.79,7.98
		c-0.32,4.58-0.32,8.66-0.32,31.07v20.2c0,20.88,4.31,29.54,10.38,35.31c6.87,6.62,12.94,7.81,20.92,7.81
		c8.62,0,16.93-4.07,21.72-10.19c6.55-8.32,7.99-20.2,7.99-34.97v-18.17c0-22.41-0.16-26.48-0.32-31.07
		c-0.16-4.58-0.96-7.3-5.59-7.98c-1.12-0.17-3.51-0.34-4.79-0.34c-0.64,0-1.12-0.68-1.12-1.19c0-0.85,0.64-1.19,2.24-1.19
		c6.23,0,14.37,0.34,15.17,0.34c0.96,0,7.67-0.34,11.82-0.34c1.6,0,2.24,0.34,2.24,1.19c0,0.51-0.48,1.19-1.12,1.19
		c-0.96,0-1.76,0-3.51,0.34c-3.83,0.85-4.63,3.23-4.95,7.98c-0.32,4.58-0.16,8.66-0.16,31.07v15.45c0,15.62-1.92,33.11-13.1,43.29
		c-10.22,9.34-21.08,10.53-29.39,10.53c-4.63,0-19.33-0.34-29.23-10.19c-6.87-6.79-12.3-16.81-12.3-37.86V2517.04z"/>
	<path class="st0" d="M1800.48,2542.5c0,13.92,0,25.3,0.64,31.24c0.48,4.24,1.12,6.96,5.43,7.64c1.92,0.34,5.11,0.68,6.39,0.68
		c0.96,0,1.12,0.68,1.12,1.19c0,0.68-0.64,1.19-2.24,1.19c-7.67,0-16.61-0.51-17.41-0.51c-0.64,0-10.38,0.51-14.53,0.51
		c-1.6,0-2.24-0.34-2.24-1.19c0-0.51,0.32-1.02,1.12-1.02c1.28,0,2.88-0.34,4.15-0.68c2.87-0.68,3.67-3.57,4.15-7.81
		c0.64-5.94,0.64-17.32,0.64-31.24v-60.61l-20.28,0.34c-8.79,0.17-12.14,1.19-14.21,4.58c-1.6,2.55-1.76,3.57-2.24,4.58
		c-0.32,1.19-0.8,1.36-1.44,1.36c-0.32,0-0.96-0.34-0.96-1.19c0-1.53,2.71-14.43,3.03-15.62c0.16-0.85,0.96-2.72,1.44-2.72
		c0.96,0,2.4,1.19,6.23,1.7c3.99,0.51,9.42,0.68,11.02,0.68h53.03c4.63,0,7.83-0.34,10.06-0.68c2.08-0.34,3.35-0.68,3.99-0.68
		s0.64,0.85,0.64,1.7c0,4.41-0.48,14.77-0.48,16.47c0,1.19-0.64,1.87-1.28,1.87s-0.96-0.51-1.12-2.55l-0.16-1.53
		c-0.48-4.41-3.51-7.64-16.93-7.98l-17.57-0.34V2542.5z"/>
	<path class="st0" d="M1880.01,2542.5c0,13.92,0,25.3,0.64,31.24c0.48,4.24,0.96,6.96,5.11,7.64c2.08,0.34,5.11,0.68,6.39,0.68
		c0.8,0,1.12,0.68,1.12,1.19c0,0.68-0.64,1.19-2.24,1.19c-7.83,0-16.93-0.51-17.57-0.51c-0.8,0-9.58,0.51-13.89,0.51
		c-1.44,0-2.24-0.34-2.24-1.19c0-0.51,0.32-1.19,1.12-1.19c1.28,0,3.03-0.34,4.31-0.68c2.72-0.68,3.19-3.4,3.67-7.64
		c0.64-5.94,0.8-17.32,0.8-31.24v-25.46c0-22.41,0-26.48-0.32-31.07c-0.32-4.92-1.44-7.13-4.47-7.81c-1.6-0.34-3.35-0.51-4.31-0.51
		c-0.64,0-1.12-0.68-1.12-1.19c0-0.85,0.64-1.19,2.24-1.19c4.63,0,13.42,0.34,14.21,0.34c0.64,0,9.74-0.34,14.05-0.34
		c1.6,0,2.24,0.34,2.24,1.19c0,0.51-0.64,1.19-1.12,1.19c-0.96,0-1.92,0-3.51,0.34c-3.83,0.85-4.63,2.89-4.95,7.98
		c-0.16,4.58-0.16,8.66-0.16,31.07V2542.5z"/>
	<path class="st0" d="M1966.89,2473.24c31.62,0,55.58,20.54,55.58,54.16c0,32.26-22.52,58.91-56.38,58.91
		c-38.49,0-54.94-30.73-54.94-56.7C1911.15,2506.34,1928.08,2473.24,1966.89,2473.24z M1970.08,2580.36
		c12.62,0,38.01-7.13,38.01-48.89c0-34.63-19.8-52.8-42-52.8c-23.48,0-40.41,15.62-40.41,47.03
		C1925.68,2559.31,1944.69,2580.36,1970.08,2580.36z"/>
	<path class="st0" d="M2057.76,2564.74c0.32,11.88,1.6,15.45,5.43,16.47c2.55,0.68,5.75,0.85,7.03,0.85c0.64,0,1.12,0.51,1.12,1.19
		c0,0.85-0.96,1.19-2.55,1.19c-7.99,0-13.58-0.51-14.85-0.51s-7.19,0.51-13.58,0.51c-1.44,0-2.24-0.17-2.24-1.19
		c0-0.68,0.48-1.19,1.12-1.19c1.12,0,3.67-0.17,5.75-0.85c3.51-1.02,3.99-4.92,3.99-18v-82.68c0-5.77,0.8-7.3,1.92-7.3
		c1.6,0,3.99,2.89,5.43,4.41c2.24,2.38,22.68,25.46,44.4,49.23c13.9,15.28,28.91,32.43,33.22,37.18l-1.44-72.32
		c-0.16-9.34-0.96-12.56-5.27-13.41c-2.56-0.51-5.75-0.68-6.87-0.68c-0.96,0-1.12-0.85-1.12-1.36c0-0.85,1.12-1.02,2.71-1.02
		c6.39,0,13.1,0.34,14.69,0.34c1.6,0,6.23-0.34,11.98-0.34c1.44,0,2.56,0.17,2.56,1.02c0,0.51-0.64,1.36-1.6,1.36
		c-0.64,0-1.76,0-3.35,0.34c-4.63,1.02-4.95,3.9-4.95,12.56l-0.32,84.54c0,9.51-0.16,10.36-1.12,10.36c-1.44,0-2.88-1.19-10.7-8.83
		c-1.44-1.36-21.72-22.58-36.57-39.05c-16.29-18.17-32.1-35.82-36.41-40.92L2057.76,2564.74z"/>
	<path class="st0" d="M2173.07,2582.4c-1.92-1.02-2.08-1.53-2.08-5.43c0-7.13,0.64-12.9,0.8-15.28c0-1.53,0.32-2.38,1.12-2.38
		c0.8,0,1.28,0.51,1.28,1.7s0,3.23,0.48,5.26c2.24,10.53,12.78,14.26,22.2,14.26c13.89,0,21.08-8.32,21.08-19.18
		c0-10.36-5.27-15.28-17.73-25.13l-6.39-5.09c-15.17-12.05-20.12-20.88-20.12-30.9c0-16.98,12.62-27.16,31.14-27.16
		c5.59,0,11.18,0.85,14.53,1.7c2.71,0.68,3.83,0.68,4.95,0.68s1.44,0.17,1.44,1.02c0,0.68-0.64,5.43-0.64,15.28
		c0,2.21-0.16,3.23-1.12,3.23c-0.96,0-1.12-0.68-1.28-1.87c-0.16-1.7-1.28-5.6-2.08-7.13c-0.96-1.7-5.59-7.13-18.21-7.13
		c-10.22,0-18.69,5.43-18.69,15.62c0,9.17,4.31,14.43,18.21,24.45l3.99,2.89c17.09,12.39,23,22.41,23,34.8
		c0,8.49-3.04,17.66-13.1,24.62c-5.91,4.08-14.69,5.09-22.36,5.09C2186.96,2586.3,2178.82,2585.29,2173.07,2582.4z"/>
</g>
<g>
	<g>
		<path class="st0" d="M1418.34,1444.18c-4.98-16.07-8.43-32.96-15.18-48.08c-48.02-107.58-114.7-197.61-204.05-268.08
			c-61.54-48.54-128.39-82.4-199.99-108.11c-96.04-34.49-195.5-49.77-294.26-69.64c-87.71-17.65-176.21-33.62-259.19-71.01
			c-98.25-44.27-178.04-112.92-224.65-221.24c-8.31-19.3-16.6-38.61-21.62-60.35c26.02,20.47,50.4,44.33,78.42,60.67
			c52.85,30.83,106.39,61.42,162.24,84.58c63.96,26.52,130.61,45.33,196.35,66.51c26.48,8.53,53.67,14.39,80.51,21.58
			c70.79,18.96,141.97,36.38,212.26,57.37c91.52,27.34,182.83,56.83,267.17,105.44c102.81,59.26,193.51,135,251.5,249.09
			c41.25,81.16,66.49,168.73,70.62,261.44c3.32,74.51-0.57,149.39-0.7,224.11c-0.04,22.84-9.87,32.52-29.89,32.35
			c-96.72-0.85-190.66-18.02-278.52-63.61c-52.69-27.33-91.98-73.11-127.89-123c-51.64-71.74-112.06-133.19-184.15-180.16
			c-72.77-47.42-153.13-62.14-235.81-69.15c-48.18-4.08-90.68-23.27-119.61-68.74c-4.61-7.24-6.52-16.54-8.49-21.73
			c40.29,9.32,78.36,18.49,116.57,26.88c57.52,12.64,116.51,19.72,172.39,38.22c87.65,29.02,164.67,80.68,228.33,154.34
			c4.81,5.56,10.09,10.67,15.4,15.67c2.44,2.3,5.5,3.8,8.28,5.67c1.98-1.68,3.97-3.37,5.95-5.05
			c-11.54-17.86-21.68-37.1-34.89-53.32c-47.82-58.73-106.56-100.67-173.53-128.04c-56.04-22.9-112.56-44.5-169.44-64.71
			c-27.52-9.77-56.68-13.81-84.55-22.54c-57-17.87-115.05-33.87-164.72-71.47c-28.81-21.81-51.62-49.6-54.99-97.2
			c13.86,7.33,23.97,11.52,32.98,17.64c55.77,37.82,117.83,55.28,181.27,68.48c43.76,9.1,87.56,17.93,131.25,27.44
			c33.29,7.25,66.66,14.37,99.59,23.32c136.56,37.13,252.69,109.95,338.09,235.66c23.82,35.07,47.53,70.22,75.75,104.79
			c-0.48-8.32,0.86-17.4-1.72-24.84c-32.36-93.19-86.85-168.36-158.94-227.91c-70.61-58.32-149.45-99.49-233.75-128.06
			c-65.38-22.16-130.66-44.73-196.47-65.21c-48.31-15.04-97.65-26.06-146.12-40.53c-77.96-23.27-155.2-49.09-218.8-107.5
			c-33.65-30.91-52.52-70.8-59.69-125.33c9.96,7.84,15.24,11.1,19.55,15.51c67.43,68.97,148.62,109.01,236.11,136.11
			c84.69,26.23,170.76,43.57,258.04,56.37c64.3,9.43,127.75,26.75,191.12,42.75c39.11,9.87,79.32,19.14,115.51,37.19
			c45.19,22.54,88.58,50.95,129.5,81.97c73.74,55.9,127.01,133.66,177.58,213.46c15,23.67,29.18,47.98,43.73,71.99
			C1414.65,1445.52,1416.5,1444.85,1418.34,1444.18z"/>
		<path class="st0" d="M1443.97,1120.25c-10.15-9.78-21.14-18.71-30.3-29.5c-51.91-61.13-115.42-103.23-182.93-140.29
			c-69.35-38.07-142.31-64.2-216.33-87.62c-15.49-4.9-13.91-16.51-11.12-27.3c5.02-19.35,11.4-38.4,18.68-56.89
			c39.83-101.24,95.12-190,176.44-256.76c36.46-29.93,77.6-49.58,121.01-65.09c84.69-30.28,172.33-42.04,259.84-56.24
			c57.44-9.32,109.45-35.44,153.44-78.68c4.99-4.9,12.46-6.75,22.69-12.03c-6.45,51.79-24.58,90.85-53.21,124.49
			c-10.15,11.93-20.93,23.29-30.42,35.82c-13.18,17.4-13.55,39.52,1.76,54.48c26.83,26.22,54.93,51.01,83.57,74.84
			c29.96,24.92,50.87,54.45,57.37,96.7c6.55,42.58,32.84,74.8,54.29,109.34c33.4,53.8,67.81,106.95,99.03,162.25
			c23.01,40.77,10.95,84.45-0.63,126.41c-3.65,13.22-9.48,26.02-15.92,37.96c-36.94,68.55-121.74,42.13-145.97-10.11
			c-30.15-64.99-82.81-85.05-141.5-96.32c-40.8-7.84-79.74-20.76-114.34-46.37c-37.7-27.9-50.76-70.84-57.98-117.15
			c-1.71-10.96-4.15-21.78-10.31-32.64C1419.91,918.7,1415.33,1015.62,1443.97,1120.25z M1769.28,757.59
			c3.37-1.81,6.74-3.62,10.11-5.43c-1.51-10.58-0.83-22.38-5.03-31.46c-6.3-13.64-16.99-24.76-24-38.1
			c-7.05-13.42-16.69-26.37-28.99-15.77c-6.25,5.38-7.59,29.21-2.09,37.16C1733.22,724.13,1752.27,740.01,1769.28,757.59z"/>
		<path class="st0" d="M1562.25,1694.22c-10.76-33.38-7.13-42.41,17.35-58.84c95.16-63.87,181.34-139.85,256.15-230.9
			c66.14-80.5,123.25-168.37,167.26-265.24c56.71-124.83,97.32-255.87,121.28-393.57c20.19-116.05,30.64-232.43,29.89-350.37
			c-0.15-23.69-4.58-41.27-26.49-52.42c-65.95-33.57-130.21-71.28-196.88-102.95c-90.14-42.82-185.88-66.82-282.63-81.13
			c-64.3-9.51-130.15-7.31-195.34-8.46c-82.32-1.45-162.31,18.89-241.07,40.88c-82.77,23.11-164.09,53.37-239.97,98.22
			c-29.82,17.62-59.81,34.9-89.9,51.95c-18.86,10.69-25.52,28.32-24.47,50.2c3.61,75.36,4.98,150.99,12.1,225.95
			c5.63,59.26,18.49,117.7,28.08,176.51c1.48,9.07,2.67,18.2,4.04,27.62c-15.11,7.32-24.44,2.29-30.34-12.02
			c-2.91-7.07-6.46-14.16-7.73-21.65c-23.45-137.94-39.21-276.66-36.23-417.45c0.47-22.41,8.51-37.63,25.04-47.1
			c58.06-33.26,116.38-66.01,175.01-98.06c70.12-38.34,145.24-62.23,221.01-80.58c101.02-24.47,203.35-44.5,307.85-31.98
			c66.17,7.93,132.72,14.14,198.08,27.27c49.13,9.88,96.91,28.57,144.76,45.17c34.34,11.92,68.97,24.16,101.4,41.06
			c58.57,30.51,116.01,63.77,172.82,98.06c9.06,5.47,16.85,21.98,17.62,33.97c2.57,40.3,4.72,81.16,1.53,121.28
			c-7.15,89.86-12.79,180.4-27.9,268.84c-21.28,124.54-56.42,245.08-106,360.44c-62.5,145.42-142.86,277.13-250.15,386.31
			c-55.53,56.51-119.37,103.28-180.21,153.34C1608.1,1665.11,1585.64,1678.18,1562.25,1694.22z"/>
		<path class="st0" d="M1519.64,1257.73c58.07,59.68,110.84,114.06,163.8,168.22c8.25,8.44,17.25,16.02,26.02,23.84
			c16.4,14.61,17.61,22.91,0.52,37.9c-34.7,30.43-70.07,60.04-106.37,88.11c-12.36,9.56-28.34,13.49-42.67,19.99
			c-2.04-16.43-6.19-32.92-5.75-49.26c2.06-75.07-6.04-148.89-20.18-222.07c-1.88-9.74-6.97-18.71-9.23-28.41
			C1523.18,1284.9,1522.06,1273.31,1519.64,1257.73z"/>
	</g>
</g>
<g>
	<path class="st0" d="M302.14,1975.62c5.04-14.74,6.72-17.42,9.24-17.42s4.2,2.23,9.24,16.08c6.3,16.97,72.26,201.39,97.88,269.26
		c15.12,39.74,27.31,46.89,36.13,49.57c6.3,2.23,12.6,2.68,16.8,2.68c2.52,0,4.2,0.45,4.2,2.68c0,2.68-3.78,3.57-8.4,3.57
		c-6.3,0-36.97,0-65.95-0.89c-7.98-0.45-12.6-0.45-12.6-3.13c0-1.79,1.26-2.68,2.94-3.12c2.52-0.89,5.04-4.91,2.52-12.06
		l-39.07-109.85c-0.84-1.79-1.68-2.68-3.78-2.68h-90.32c-2.1,0-3.36,1.34-4.2,3.57l-25.21,79.04c-3.78,11.16-5.88,21.88-5.88,29.92
		c0,8.93,8.82,12.95,15.96,12.95h4.2c2.94,0,4.2,0.89,4.2,2.68c0,2.68-2.52,3.57-6.3,3.57c-10.08,0-28.15-1.34-32.77-1.34
		s-27.73,1.34-47.47,1.34c-5.46,0-7.98-0.89-7.98-3.57c0-1.79,1.68-2.68,3.78-2.68c2.94,0,8.82-0.45,12.18-0.89
		c19.32-2.68,27.73-19.65,35.29-41.97L302.14,1975.62z M345.83,2154.24c2.1,0,2.1-1.34,1.68-3.13l-39.91-120.56
		c-2.1-6.7-4.2-6.7-6.3,0l-36.97,120.56c-0.84,2.23,0,3.13,1.26,3.13H345.83z"/>
	<path class="st0" d="M571,2201.12c0,72.34,0,100.02-12.6,131.73c-8.82,22.33-27.31,43.31-61.33,68.32
		c-5.46,4.02-12.18,8.93-16.38,11.16c-0.84,0.45-1.68,0.89-2.94,0.89s-2.94-0.89-2.94-2.68c0-2.68,2.1-4.02,5.88-6.7
		c5.04-3.13,10.92-8.48,14.7-12.5c27.31-29.47,40.33-53.14,40.33-168.34v-129.05c0-69.66,0-82.16-0.84-96.45
		c-0.84-15.18-4.2-22.33-18.06-25.45c-3.36-0.89-10.5-1.34-14.28-1.34c-1.68,0-3.36-0.89-3.36-2.68c0-2.68,2.1-3.57,6.72-3.57
		c18.9,0,45.37,1.34,47.47,1.34s28.57-1.34,41.17-1.34c4.62,0,6.72,0.89,6.72,3.57c0,1.79-1.68,2.68-3.36,2.68
		c-2.94,0-5.46,0.45-10.5,1.34c-11.34,2.23-14.7,9.82-15.54,25.45c-0.84,14.29-0.84,26.79-0.84,96.45V2201.12z"/>
	<path class="st0" d="M756.25,2186.39c0-24.11-4.2-33.94-9.66-46.89c-2.94-7.14-59.23-105.38-73.94-128.6
		c-10.5-16.52-21-27.69-28.57-33.04c-6.3-4.46-14.28-7.14-18.06-7.14c-2.1,0-4.2-0.89-4.2-3.12c0-1.79,1.68-3.13,5.46-3.13
		c7.98,0,39.49,1.34,41.59,1.34c2.94,0,18.9-1.34,35.29-1.34c4.62,0,5.46,1.34,5.46,3.13c0,1.79-2.52,2.23-6.3,4.02
		c-3.36,1.79-5.46,4.47-5.46,8.04c0,5.36,2.1,10.72,5.46,17.41c6.72,12.95,69.73,128.16,77.3,141.1
		c7.98-18.75,61.33-116.54,69.73-131.28c5.46-9.38,7.14-16.97,7.14-22.77c0-6.25-1.68-11.16-6.72-12.5c-3.78-1.34-6.3-2.23-6.3-4.47
		c0-1.79,2.52-2.68,6.72-2.68c10.92,0,24.37,1.34,27.73,1.34c2.52,0,32.77-1.34,40.75-1.34c2.94,0,5.46,0.89,5.46,2.68
		c0,2.23-2.1,3.57-5.46,3.57c-4.62,0-12.6,1.79-19.32,6.25c-8.4,5.36-13.02,10.72-22.26,22.77c-13.86,17.86-72.68,122.8-80.24,142
		c-6.3,16.08-6.3,29.92-6.3,44.65v38.4c0,7.14,0,25.9,1.26,44.65c0.84,12.95,4.62,22.77,17.22,24.56c5.88,0.89,15.12,1.79,18.9,1.79
		c2.52,0,3.36,1.34,3.36,2.68c0,2.23-2.1,3.57-6.72,3.57c-23.1,0-49.57-1.34-51.67-1.34s-28.57,1.34-41.17,1.34
		c-4.62,0-6.72-0.89-6.72-3.57c0-1.34,0.84-2.68,3.36-2.68c3.78,0,8.82-0.89,12.6-1.79c8.4-1.79,12.18-11.61,13.02-24.56
		c1.26-18.75,1.26-37.51,1.26-44.65V2186.39z"/>
	<path class="st0" d="M1025.94,1975.62c5.04-14.74,6.72-17.42,9.24-17.42s4.2,2.23,9.24,16.08c6.3,16.97,72.26,201.39,97.88,269.26
		c15.12,39.74,27.31,46.89,36.13,49.57c6.3,2.23,12.6,2.68,16.8,2.68c2.52,0,4.2,0.45,4.2,2.68c0,2.68-3.78,3.57-8.4,3.57
		c-6.3,0-36.97,0-65.95-0.89c-7.98-0.45-12.6-0.45-12.6-3.13c0-1.79,1.26-2.68,2.94-3.12c2.52-0.89,5.04-4.91,2.52-12.06
		l-39.07-109.85c-0.84-1.79-1.68-2.68-3.78-2.68h-90.32c-2.1,0-3.36,1.34-4.2,3.57l-25.21,79.04c-3.78,11.16-5.88,21.88-5.88,29.92
		c0,8.93,8.82,12.95,15.96,12.95h4.2c2.94,0,4.2,0.89,4.2,2.68c0,2.68-2.52,3.57-6.3,3.57c-10.08,0-28.15-1.34-32.77-1.34
		s-27.73,1.34-47.47,1.34c-5.46,0-7.98-0.89-7.98-3.57c0-1.79,1.68-2.68,3.78-2.68c2.94,0,8.82-0.45,12.18-0.89
		c19.32-2.68,27.73-19.65,35.29-41.97L1025.94,1975.62z M1069.63,2154.24c2.1,0,2.1-1.34,1.68-3.13l-39.91-120.56
		c-2.1-6.7-4.2-6.7-6.3,0l-36.97,120.56c-0.84,2.23,0,3.13,1.26,3.13H1069.63z"/>
	<path class="st0" d="M1582.55,2244.88c1.68,16.08,4.62,41.08,22.69,47.33c12.18,4.02,23.1,4.02,27.31,4.02
		c2.1,0,3.36,0.45,3.36,2.23c0,2.68-3.78,4.02-8.82,4.02c-9.24,0-54.61-0.45-70.16-1.79c-9.66-0.89-11.76-2.23-11.76-4.46
		c0-1.79,0.84-2.68,2.94-3.13c2.1-0.45,2.52-8.04,1.68-16.08l-20.16-231.75h-1.26l-102.92,232.2
		c-8.82,19.65-10.08,23.67-13.86,23.67c-2.94,0-5.04-4.46-13.02-20.54c-10.92-21.88-47.05-99.13-49.15-103.6
		c-3.78-8.04-50.83-115.21-55.45-127.26h-1.68l-16.8,207.19c-0.42,7.14-0.42,15.18-0.42,22.77c0,6.7,4.62,12.5,10.92,13.84
		c7.14,1.79,13.44,2.23,15.96,2.23c1.68,0,3.36,0.89,3.36,2.23c0,3.13-2.52,4.02-7.56,4.02c-15.54,0-35.71-1.34-39.07-1.34
		c-3.78,0-23.95,1.34-35.29,1.34c-4.2,0-7.14-0.89-7.14-4.02c0-1.34,2.1-2.23,4.2-2.23c3.36,0,6.3,0,12.6-1.34
		c13.86-2.68,15.12-20.09,16.8-37.06l30.25-291.14c0.42-4.91,2.1-8.04,4.62-8.04s4.2,1.79,6.3,6.7l128.55,280.87l123.51-280.42
		c1.68-4.02,3.36-7.14,6.3-7.14s4.2,3.57,5.04,12.06L1582.55,2244.88z"/>
	<path class="st0" d="M1711.09,2093.95c0-69.66,0-82.16-0.84-96.45c-0.84-15.18-4.2-22.33-18.06-25.45
		c-3.36-0.89-10.5-1.34-14.28-1.34c-1.68,0-3.36-0.89-3.36-2.68c0-2.68,2.1-3.57,6.72-3.57c9.66,0,21,0,30.25,0.45l17.22,0.89
		c2.94,0,86.54,0,96.2-0.45c7.98-0.45,14.7-1.34,18.06-2.23c2.1-0.45,3.78-2.23,5.88-2.23c1.26,0,1.68,1.79,1.68,4.02
		c0,3.13-2.1,8.48-3.36,20.99c-0.42,4.46-1.26,24.11-2.1,29.47c-0.42,2.23-1.26,4.91-2.94,4.91c-2.52,0-3.36-2.23-3.36-5.8
		c0-3.13-0.42-10.72-2.52-16.08c-2.94-7.14-7.14-12.5-29.83-15.18c-7.14-0.89-52.93-1.34-57.55-1.34c-1.68,0-2.52,1.34-2.52,4.46
		v123.24c0,3.13,0.42,4.47,2.52,4.47c5.46,0,57.13,0,66.79-0.89c10.08-0.89,15.96-1.79,19.74-6.25c2.94-3.57,4.62-5.81,6.3-5.81
		c1.26,0,2.1,0.89,2.1,3.57c0,2.68-2.1,10.27-3.36,25.01c-0.84,8.93-1.68,25.45-1.68,28.58c0,3.57,0,8.48-2.94,8.48
		c-2.1,0-2.94-1.79-2.94-4.02c0-4.47,0-8.93-1.68-14.74c-1.68-6.25-5.46-13.84-21.84-15.63c-11.34-1.34-52.93-2.23-60.07-2.23
		c-2.1,0-2.94,1.34-2.94,3.13v39.29c0,15.18-0.42,66.98,0,76.36c1.26,30.81,7.56,36.62,48.73,36.62c10.92,0,29.41,0,40.33-4.91
		c10.92-4.91,15.96-13.84,18.91-32.15c0.84-4.91,1.68-6.7,3.78-6.7c2.52,0,2.52,3.57,2.52,6.7c0,3.57-3.36,33.94-5.46,43.31
		c-2.94,11.61-6.3,11.61-22.69,11.61c-31.51,0-54.61-0.89-71-1.34c-16.38-0.89-26.47-1.34-32.77-1.34c-0.84,0-7.98,0-16.8,0.45
		c-8.4,0-18.06,0.89-24.37,0.89c-4.62,0-6.72-0.89-6.72-3.57c0-1.34,0.84-2.68,3.36-2.68c3.78,0,8.82-0.89,12.6-1.79
		c8.4-1.79,10.5-11.61,12.18-24.56c2.1-18.75,2.1-54.03,2.1-96.9V2093.95z"/>
	<path class="st0" d="M1967.33,2093.95c0-69.66,0-82.16-0.84-96.45c-0.84-15.18-4.2-22.33-18.06-25.45
		c-3.36-0.89-10.5-1.34-14.28-1.34c-1.68,0-3.36-0.89-3.36-2.68c0-2.68,2.1-3.57,6.72-3.57c18.9,0,45.37,1.34,47.47,1.34
		c5.04,0,31.51-1.34,56.71-1.34c41.59,0,118.47-4.02,168.46,50.9c21,23.22,40.75,60.28,40.75,113.42
		c0,56.26-21.84,99.58-45.37,125.92c-18.06,20.09-55.87,51.35-127.29,51.35c-18.06,0-40.33-1.34-58.39-2.68
		c-18.48-1.34-32.77-2.68-34.87-2.68c-0.84,0-7.98,0-16.8,0.45c-8.4,0-18.06,0.89-24.37,0.89c-4.62,0-6.72-0.89-6.72-3.57
		c0-1.34,0.84-2.68,3.36-2.68c3.78,0,8.82-0.89,12.6-1.79c8.4-1.79,10.5-11.61,12.18-24.56c2.1-18.75,2.1-54.03,2.1-96.9V2093.95z
		 M2002.62,2142.18c0,47.33,0.42,88.41,0.84,96.9c0.42,11.16,1.26,29.02,4.62,33.94c5.46,8.48,21.84,17.86,71.42,17.86
		c39.07,0,75.2-15.18,99.98-41.53c21.84-22.77,33.61-65.64,33.61-106.72c0-56.71-23.1-93.33-40.33-112.53
		c-39.49-44.21-87.38-50.46-137.37-50.46c-8.4,0-23.94,1.34-27.31,3.13c-3.78,1.79-5.04,4.02-5.04,8.93
		c-0.42,15.18-0.42,60.73-0.42,95.11V2142.18z"/>
	<path class="st0" d="M2383.63,2172.54c0,42.87,0,78.14,2.1,96.9c1.26,12.95,3.78,22.77,16.38,24.56c5.88,0.89,15.12,1.79,18.9,1.79
		c2.52,0,3.36,1.34,3.36,2.68c0,2.23-2.1,3.57-6.72,3.57c-23.1,0-49.57-1.34-51.67-1.34s-28.57,1.34-41.17,1.34
		c-4.62,0-6.72-0.89-6.72-3.57c0-1.34,0.84-2.68,3.36-2.68c3.78,0,8.82-0.89,12.6-1.79c8.4-1.79,10.5-11.61,12.18-24.56
		c2.1-18.75,2.1-54.03,2.1-96.9v-78.59c0-69.66,0-82.16-0.84-96.45c-0.84-15.18-5.04-22.77-14.28-25.01
		c-4.62-1.34-10.08-1.79-13.02-1.79c-1.68,0-3.36-0.89-3.36-2.68c0-2.68,2.1-3.57,6.72-3.57c13.86,0,40.33,1.34,42.43,1.34
		s28.57-1.34,41.17-1.34c4.62,0,6.72,0.89,6.72,3.57c0,1.79-1.68,2.68-3.36,2.68c-2.94,0-5.46,0.45-10.5,1.34
		c-11.34,2.23-14.7,9.82-15.54,25.45c-0.84,14.29-0.84,26.79-0.84,96.45V2172.54z"/>
	<path class="st0" d="M2529.82,2260.06c-40.75-38.85-50.83-89.75-50.83-132.17c0-29.92,9.66-82.16,47.05-121.9
		c25.21-26.79,63.43-47.78,128.13-47.78c16.8,0,40.33,1.34,60.91,5.36c15.96,3.13,29.41,5.8,42.85,6.7
		c4.62,0.45,5.46,2.23,5.46,4.91c0,3.57-1.26,8.93-2.1,25.01c-0.84,14.74-0.84,39.29-1.26,45.99c-0.42,6.7-1.26,9.38-3.78,9.38
		c-2.94,0-3.36-3.13-3.36-9.38c0-17.42-6.72-35.72-17.64-45.55c-14.7-13.4-47.05-25.45-84.02-25.45c-55.87,0-81.92,17.42-96.62,32.6
		c-30.67,31.26-37.81,71-37.81,116.54c0,85.29,61.75,163.43,151.65,163.43c31.51,0,56.29-4.02,73.09-22.33
		c8.82-9.82,14.28-29.47,15.54-37.51c0.84-4.91,1.68-6.7,4.2-6.7c2.1,0,2.94,3.12,2.94,6.7c0,3.13-5.04,41.97-9.24,57.16
		c-2.52,8.48-3.36,9.38-10.92,12.95c-16.8,7.14-48.73,10.27-75.62,10.27C2605.43,2308.29,2563,2291.77,2529.82,2260.06z"/>
</g>
</svg>
